<?xml version="1.0" standalone="no"?>
<!DOCTYPE svg PUBLIC "-//W3C//DTD SVG 20010904//EN"
 "http://www.w3.org/TR/2001/REC-SVG-20010904/DTD/svg10.dtd">
<svg version="1.0" xmlns="http://www.w3.org/2000/svg"
 width="456.000000pt" height="456.000000pt" viewBox="0 0 456.000000 1012.000000"
 preserveAspectRatio="xMidYMid meet">

<g transform="translate(0.000000,712.000000) scale(0.0900000,-0.090000)"
fill="#000000" stroke="none">
<path d="M730 5105 c-288 -65 -509 -275 -581 -554 -27 -104 -27 -268 0 -372
68 -262 277 -473 541 -545 90 -25 290 -25 380 -1 156 43 313 147 405 268 59
78 119 204 140 290 19 83 19 265 -1 349 -20 89 -93 233 -154 307 -94 113 -243
209 -385 248 -85 23 -264 28 -345 10z m313 -162 c91 -26 188 -84 258 -153 309
-305 202 -823 -203 -984 -291 -115 -622 16 -758 299 -45 95 -60 159 -60 263 0
288 215 541 502 591 66 12 193 4 261 -16z"/>
<path d="M616 4559 c-44 -34 -34 -102 17 -124 81 -34 144 59 82 120 -30 30
-64 32 -99 4z"/>
<path d="M1045 4555 c-41 -40 -32 -99 18 -120 81 -34 144 59 82 120 -13 14
-36 25 -50 25 -14 0 -37 -11 -50 -25z"/>
<path d="M649 4300 c-9 -5 -22 -23 -28 -39 -11 -24 -10 -35 7 -67 25 -49 74
-95 132 -125 67 -35 176 -33 245 3 94 49 152 134 133 190 -12 33 -35 48 -74
48 -20 0 -41 -14 -79 -55 -49 -53 -52 -55 -104 -55 -52 0 -56 2 -107 55 -55
56 -86 68 -125 45z"/>
<path d="M2515 4516 c-5 -3 -36 -7 -68 -11 -38 -4 -66 -14 -78 -26 -26 -26
-25 -83 2 -110 19 -19 27 -20 92 -12 221 25 391 -30 534 -173 79 -80 141 -191
164 -295 17 -82 7 -248 -21 -326 -82 -236 -317 -402 -567 -403 -95 0 -162 15
-252 56 -218 100 -351 309 -351 551 0 151 56 290 164 411 73 81 81 108 41 147
-42 43 -71 34 -150 -48 -84 -87 -127 -157 -168 -274 -26 -74 -31 -107 -35
-210 -5 -152 12 -240 73 -361 82 -162 190 -270 350 -347 111 -53 205 -75 327
-75 268 0 511 139 648 368 287 485 -44 1103 -609 1137 -47 2 -90 3 -96 1z"/>
<path d="M2301 3964 c-12 -15 -21 -38 -21 -51 0 -32 42 -73 75 -73 35 0 75 42
75 78 0 65 -89 97 -129 46z"/>
<path d="M2735 3965 c-14 -13 -25 -36 -25 -50 0 -33 41 -75 73 -75 39 0 77 36
77 74 0 68 -78 99 -125 51z"/>
<path d="M2363 3683 c-50 -10 -69 -81 -34 -124 19 -24 20 -24 239 -24 202 0
222 2 241 19 29 26 29 86 0 112 -19 17 -40 19 -223 20 -110 1 -211 0 -223 -3z"/>
<path d="M4062 3591 c-267 -66 -484 -280 -552 -546 -27 -106 -27 -263 0 -371
35 -138 91 -236 200 -345 82 -83 108 -103 190 -142 126 -62 208 -81 345 -81
208 0 369 68 521 219 173 171 246 373 223 612 -18 176 -92 328 -226 460 -70
70 -98 90 -185 132 -57 27 -135 57 -175 65 -95 21 -248 19 -341 -3z m274 -142
c191 -35 356 -157 439 -325 65 -131 80 -271 45 -408 -29 -113 -73 -190 -161
-279 -128 -129 -277 -185 -462 -174 -217 13 -397 134 -492 332 -68 140 -82
266 -45 409 28 112 73 190 160 276 142 143 328 203 516 169z"/>
<path d="M3976 3069 c-55 -43 -22 -133 49 -133 46 0 75 31 75 79 0 38 -37 75
-75 75 -12 0 -34 -9 -49 -21z"/>
<path d="M4406 3069 c-55 -43 -22 -133 49 -133 46 0 75 31 75 79 0 38 -37 75
-75 75 -12 0 -34 -9 -49 -21z"/>
<path d="M4144 2828 c-51 -16 -125 -79 -153 -129 -22 -41 -24 -49 -12 -76 15
-36 59 -58 96 -49 14 4 37 24 51 46 18 27 40 44 70 56 41 16 47 16 88 0 30
-12 52 -29 70 -56 14 -22 37 -42 51 -46 37 -9 81 13 96 48 11 27 10 36 -11 75
-30 56 -89 107 -148 127 -51 18 -150 19 -198 4z"/>
<path d="M517 3336 c-60 -22 -107 -65 -133 -120 l-24 -51 0 -691 c0 -644 1
-693 18 -713 9 -11 31 -24 49 -27 26 -5 37 -1 57 19 l26 26 0 680 0 680 24 28
24 28 321 0 c320 0 320 0 343 -23 l23 -23 3 -1469 2 -1469 -24 -28 -24 -28
-322 0 -322 0 -24 28 -24 28 0 663 0 663 -23 21 c-31 29 -77 29 -105 -1 l-22
-23 0 -675 0 -674 24 -50 c27 -59 67 -96 128 -120 38 -14 87 -16 383 -13 328
3 341 4 381 25 51 27 87 69 108 125 15 39 16 179 14 1539 l-3 1496 -30 49
c-19 30 -49 60 -79 79 l-49 30 -341 2 c-268 2 -349 0 -379 -11z"/>
<path d="M2235 2741 c-78 -19 -156 -91 -175 -159 -7 -28 -9 -411 -8 -1229 l3
-1190 30 -49 c19 -30 49 -60 79 -79 l49 -30 343 -3 c333 -3 344 -2 394 19 54
23 104 73 126 125 12 28 14 237 14 1227 l0 1193 -25 51 c-31 62 -81 102 -149
120 -55 14 -625 17 -681 4z m683 -176 l22 -26 0 -1167 c-1 -902 -3 -1171 -13
-1183 -28 -37 -50 -39 -362 -39 l-307 0 -29 29 -29 29 0 1165 c0 1153 0 1165
20 1190 11 14 30 28 43 31 12 3 159 3 327 1 l305 -5 23 -25z"/>
<path d="M3871 1829 c-46 -14 -124 -95 -139 -145 -9 -31 -12 -225 -12 -770 l0
-729 24 -52 c28 -58 85 -107 148 -124 25 -6 161 -9 371 -7 320 3 333 4 373 25
51 27 87 69 108 125 15 39 16 119 14 790 l-3 746 -30 43 c-17 24 -50 57 -74
74 l-43 30 -351 2 c-209 1 -366 -2 -386 -8z m711 -167 l23 -23 3 -692 c2 -380
0 -707 -3 -725 -11 -63 -19 -64 -371 -66 l-316 -1 -24 28 -24 28 0 710 0 711
30 29 29 30 315 -3 c313 -3 316 -3 338 -26z"/>
</g>
</svg>
